<svg xmlns:dc="http://purl.org/dc/elements/1.1/" xmlns:cc="http://creativecommons.org/ns#" xmlns:rdf="http://www.w3.org/1999/02/22-rdf-syntax-ns#" xmlns:svg="http://www.w3.org/2000/svg" xmlns="http://www.w3.org/2000/svg" viewBox="0 0 400 400" height="128" width="128" xml:space="preserve" id="svg2" version="1.1" style="font-size: 128px; color: rgb(1, 0, 0);">
    <style>
        #yun-logo {
            stroke: black;
        }

        @media (prefers-color-scheme: dark) {
            #yun-logo {
                stroke: white;
            }
        }
    </style>
    <metadata id="metadata8" style="fill: rgb(1, 0, 0);">
        <rdf:rdf style="fill: rgb(1, 0, 0);">
            <cc:work rdf:about="" style="fill: rgb(1, 0, 0);">
                <dc:format style="fill: rgb(1, 0, 0);">
                    image/svg+xml
                </dc:format>
                <dc:type rdf:resource="http://purl.org/dc/dcmitype/StillImage" style="fill: rgb(1, 0, 0);">
                </dc:type>
            </cc:work>
        </rdf:rdf>
    </metadata>
    <defs id="defs6" style="fill: rgb(1, 0, 0);">
    </defs>
    <g transform="matrix(1.3333333,0,0,-1.3333333,0,400)" id="g10" style="fill: rgb(1, 0, 0);">
        <g transform="scale(0.1)" id="g12" style="fill: rgb(1, 0, 0);">
            <path id="path14" style="fill: rgb(1, 0, 0); fill-opacity: 1; fill-rule: evenodd; stroke: none;" d="m 1606.49,1511.6 -234.03,-36.87 c 0.84,-53.69 2.01,-121.35 2.27,-198.07 -129.96,111.65 -246.53,256.93 -295.11,431.59 l -62.16,-17.21 c 32.73,-117.86 77.82,-226.92 135.78,-327.32 -119.22,9.71 -244.97,43.86 -344.01,122.78 l -28.007,-34.93 c 132.996,-106.09 279.577,-172.45 442.587,-196.91 44.18,-61.19 93.92,-118.76 149.49,-172.58 -5.89,-302.221 -32.27,-667.83 -125.75,-904.451 h 522.61 c -39.72,179.961 -69.67,355 -90.89,529.402 89.6,89.52 163.59,189.008 222.85,298.329 113.4,37.9 209.06,103.89 289.54,196.91 l -24,20.83 c -58.35,-67.54 -140.76,-107.51 -222.07,-129.9 29.75,66.24 54.72,135.73 74.91,208.42 l -62.17,17.22 c -48.84,-175.82 -166.7,-321.891 -297.75,-433.789 -13.59,153.949 -20.64,308.549 -21.87,466.899 72.58,78.79 133.91,164.95 184.49,258.36 113.39,37.78 209.07,103.89 289.53,196.91 l -23.99,20.7 c -58.35,-67.41 -140.76,-107.51 -222.07,-129.77 29.76,66.12 54.73,135.59 74.9,208.43 l -62.16,17.2 C 1833.68,1759.09 1727.4,1620.53 1606.49,1511.6 Z M 1278.98,666.66 C 1135.45,643.371 991.07,663.422 862.34,719.441 687.363,795.641 541.363,938.602 466,1130.34 l -7.176,18.11 v 0.77 c -40.754,112.29 -52.789,228.35 -39.652,340 12.16,103.89 46.058,203.76 98.644,292.9 -52.328,148.13 -42.757,304.26 15.914,439.06 61.387,140.82 176.465,258.36 330.743,318.98 81.898,32.27 166.957,45.08 249.957,40.81 44.89,-2.26 89.13,-9.64 131.89,-21.67 14.81,34.35 33.89,66.75 56.93,96.31 47.41,61.01 111.51,110.62 189.01,141.09 l 18.04,7.11 h 1.36 c 108.61,37.07 222.78,29.57 321.56,-13.45 98.59,-42.95 181.71,-121.28 228.67,-226.01 87.91,-20.77 170.58,-60.36 241.93,-116.12 85.19,-66.56 154.21,-155.96 196.45,-263.4 32.67,-83.06 46.25,-169.19 42.83,-253.54 -2.85,-68.83 -17.08,-136.36 -41.66,-199.88 l 3.49,-6.86 c 10.03,-19.93 18.57,-38.94 25.62,-56.79 l 7.12,-18.12 v -0.91 c 61.51,-170.9 50.96,-351.24 -16.82,-506.88 C 2450.6,980.391 2318.76,845.852 2142.1,776.371 l -18.17,-7.109 h -0.78 c -96.77,-34.93 -196.32,-46.711 -292.57,-38.18 l -6.02,0.52 135.52,204.679 h -0.07 c 36.42,5.301 72.71,14.75 108.35,28.848 l 0.78,0.25 c 124.13,49.031 216.83,143.741 266.25,257.331 49.48,113.59 55.5,246.45 6.47,371.3 l -0.78,1.81 -0.12,0.39 -0.46,1.04 c -5.56,13.97 -11,26.26 -16.3,36.86 -6.47,12.81 -13.65,25.63 -21.48,38.43 l -29.43,47.35 24.65,50.07 c 25.68,52.39 40.56,110.09 42.95,169.22 2.33,56.79 -6.99,115.14 -29.31,171.91 -28.65,72.77 -75.1,133.12 -132.21,177.82 -59.58,46.45 -130.74,76.39 -205.65,86.29 l -66.24,8.74 -18.24,64.23 c -0.97,3.43 -2.13,7.18 -3.42,11.13 v 0.38 l -4.28,10.8 -3.48,8.8 c -25.43,58.28 -71.22,101.82 -125.7,125.56 -56.98,24.78 -123.68,27.82 -186.35,3.11 l -0.84,-0.26 c -41.47,-16.5 -76.01,-43.41 -101.83,-76.53 -27.04,-34.86 -44.31,-76.2 -49.8,-119.28 l -18.18,-143.74 -128.47,66.44 c -50.26,26 -105.83,41.27 -162.75,44.24 -54.73,2.79 -111.195,-5.82 -165.921,-27.36 -102.145,-40.17 -178.348,-117.92 -218.973,-211.19 -40.555,-93.06 -45.535,-201.87 -5.363,-304.07 h 0.125 c 1.816,-4.53 3.305,-8.28 4.469,-11 l 4.851,-11.13 24.324,-52.78 -33.058,-47.61 c -51.098,-73.35 -83.641,-158.61 -94.059,-247.49 -10.086,-86.16 0.262,-175.82 34.156,-262.11 l 0.258,-0.78 c 54.918,-139.07 161.074,-242.96 288.25,-298.339 108.031,-47.09 231.381,-59.109 351.631,-28.07 L 1278.98,666.66 v 0">
            </path>
        </g>
    </g>
</svg>